<svg width="68" height="68" viewBox="0 0 68 68" fill="none" xmlns="http://www.w3.org/2000/svg">
<circle cx="34" cy="30" r="26" stroke="white" stroke-width="8"/>
<path d="M42.25 28.268C43.5833 29.0378 43.5833 30.9623 42.25 31.7321L31.375 38.0107C30.0417 38.7805 28.375 37.8183 28.375 36.2787L28.375 23.7213C28.375 22.1817 30.0417 21.2195 31.375 21.9893L42.25 28.268Z" fill="white"/>
<g filter="url(#filter0_d)">
<circle cx="34" cy="30" r="26" stroke="white" stroke-width="8"/>
<path d="M42.25 28.268C43.5833 29.0378 43.5833 30.9623 42.25 31.7321L31.375 38.0107C30.0417 38.7805 28.375 37.8183 28.375 36.2787L28.375 23.7213C28.375 22.1817 30.0417 21.2195 31.375 21.9893L42.25 28.268Z" fill="white"/>
</g>
<defs>
<filter id="filter0_d" x="0" y="0" width="68" height="68" filterUnits="userSpaceOnUse" color-interpolation-filters="sRGB">
<feFlood flood-opacity="0" result="BackgroundImageFix"/>
<feColorMatrix in="SourceAlpha" type="matrix" values="0 0 0 0 0 0 0 0 0 0 0 0 0 0 0 0 0 0 127 0"/>
<feOffset dy="4"/>
<feGaussianBlur stdDeviation="2"/>
<feColorMatrix type="matrix" values="0 0 0 0 0 0 0 0 0 0 0 0 0 0 0 0 0 0 0.25 0"/>
<feBlend mode="normal" in2="BackgroundImageFix" result="effect1_dropShadow"/>
<feBlend mode="normal" in="SourceGraphic" in2="effect1_dropShadow" result="shape"/>
</filter>
</defs>
</svg>
