<svg width="14" height="8" viewBox="0 0 14 8" fill="none" xmlns="http://www.w3.org/2000/svg">
<path d="M3.92018 1.64478H1.14002C0.962888 1.64478 0.807994 1.76154 0.758745 1.93153C0.709497 2.10231 0.778604 2.28421 0.928732 2.37794C0.931909 2.38033 1.20357 2.55746 1.41407 2.87996C0.979569 3.43202 0.742859 4.11038 0.742859 4.8221C0.742859 6.57439 2.16789 7.99942 3.92018 7.99942C5.67247 7.99942 7.0975 6.57439 7.0975 4.8221C7.0975 3.0698 5.67247 1.64478 3.92018 1.64478ZM3.92018 7.20509C2.60636 7.20509 1.53719 6.13592 1.53719 4.8221C1.53719 4.21682 1.76675 3.64252 2.18218 3.20563C2.29419 3.08807 2.32358 2.9157 2.25685 2.76796C2.20284 2.64881 2.14088 2.5384 2.07495 2.43911H3.92018C5.234 2.43911 6.30317 3.50827 6.30317 4.8221C6.30317 6.13592 5.234 7.20509 3.92018 7.20509Z" fill="#181818"/>
<path d="M8.22771 6.0911C8.05057 5.96321 7.80274 5.99975 7.67247 6.17927L7.11803 6.94341L6.51354 6.16815C6.37851 5.99498 6.12829 5.96321 5.95592 6.09904C5.78355 6.23408 5.75258 6.4835 5.88761 6.65666L6.81698 7.84816C6.89244 7.94427 7.00762 8.00067 7.12994 8.00067C7.13233 8.00067 7.13471 8.00067 7.13709 8.00067C7.2618 7.99828 7.37857 7.93792 7.45085 7.83704L8.31508 6.64554C8.44377 6.4684 8.40564 6.21978 8.22771 6.0911Z" fill="#181818"/>
<path d="M11.3366 1.74771C8.92029 -0.458148 5.27431 -0.458943 2.85796 1.74771C2.69592 1.89545 2.684 2.14646 2.83254 2.3085C2.98029 2.47134 3.2313 2.48167 3.39334 2.33392C5.50546 0.406083 8.68993 0.406083 10.8013 2.33392C10.8775 2.40382 10.9736 2.43798 11.069 2.43798C11.177 2.43798 11.2842 2.39429 11.3621 2.3085C11.5106 2.14646 11.4987 1.89545 11.3366 1.74771Z" fill="#181818"/>
<path d="M3.91993 3.2334C3.04378 3.2334 2.33127 3.94591 2.33127 4.82206C2.33127 5.69821 3.04378 6.41072 3.91993 6.41072C4.79607 6.41072 5.50859 5.69821 5.50859 4.82206C5.50859 3.94591 4.79607 3.2334 3.91993 3.2334ZM3.91993 5.61639C3.48225 5.61639 3.1256 5.26053 3.1256 4.82206C3.1256 4.38438 3.48225 4.02773 3.91993 4.02773C4.3576 4.02773 4.71426 4.38438 4.71426 4.82206C4.71426 5.26053 4.3576 5.61639 3.91993 5.61639Z" fill="#181818"/>
<path d="M3.93571 4.42407H3.92777C3.70853 4.42407 3.53458 4.602 3.53458 4.82124C3.53458 5.04047 3.71648 5.2184 3.93571 5.2184C4.15495 5.2184 4.33288 5.04047 4.33288 4.82124C4.33288 4.602 4.15495 4.42407 3.93571 4.42407Z" fill="#181818"/>
<path d="M12.7803 2.87996C12.9908 2.55826 13.264 2.37874 13.2664 2.37794C13.4166 2.28342 13.4857 2.10152 13.4364 1.93153C13.388 1.76154 13.2323 1.64478 13.0551 1.64478H10.275C8.52268 1.64478 7.09766 3.0698 7.09766 4.8221C7.09766 6.57439 8.52268 7.99942 10.275 7.99942C12.0273 7.99942 13.4523 6.57439 13.4523 4.8221C13.4523 4.11117 13.2156 3.43202 12.7803 2.87996ZM10.275 7.20509C8.96115 7.20509 7.89199 6.13592 7.89199 4.8221C7.89199 3.50827 8.96115 2.43911 10.275 2.43911H12.1202C12.0543 2.5384 11.9923 2.64881 11.9383 2.76796C11.8724 2.9157 11.901 3.08887 12.013 3.20563C12.4292 3.64331 12.658 4.21682 12.658 4.8221C12.658 6.13592 11.5888 7.20509 10.275 7.20509Z" fill="#181818"/>
<path d="M10.2753 3.2334C9.39916 3.2334 8.68665 3.94591 8.68665 4.82206C8.68665 5.69821 9.39916 6.41072 10.2753 6.41072C11.1515 6.41072 11.864 5.69821 11.864 4.82206C11.864 3.94591 11.1515 3.2334 10.2753 3.2334ZM10.2753 5.61639C9.83684 5.61639 9.48098 5.26053 9.48098 4.82206C9.48098 4.38438 9.83684 4.02773 10.2753 4.02773C10.7138 4.02773 11.0696 4.38438 11.0696 4.82206C11.0696 5.26053 10.7138 5.61639 10.2753 5.61639Z" fill="#181818"/>
<path d="M10.2905 4.42407H10.2826C10.0634 4.42407 9.8894 4.602 9.8894 4.82124C9.8894 5.04047 10.0721 5.2184 10.2905 5.2184C10.5098 5.2184 10.6877 5.04047 10.6877 4.82124C10.6877 4.602 10.5098 4.42407 10.2905 4.42407Z" fill="#181818"/>
</svg>
