<svg xmlns="http://www.w3.org/2000/svg" width="24" height="24" viewBox="0 0 24 24">
  <g id="Group_1" data-name="Group 1" transform="translate(-974 -32)">
    <path id="icon_search_white" d="M24.969,23.67l-4.456-4.4a10.578,10.578,0,0,0,2.213-4.979A10.483,10.483,0,0,0,22.3,9.021,10.4,10.4,0,0,0,19.306,4.5,10.685,10.685,0,0,0,14.448,1.97,10.7,10.7,0,0,0,4.473,4.905,10.714,10.714,0,0,0,1.713,9.6,10.8,10.8,0,0,0,4.07,19.727a10.591,10.591,0,0,0,4.542,2.993,10.447,10.447,0,0,0,5.261.432,10.553,10.553,0,0,0,4.973-2.216l4.4,4.4a1.181,1.181,0,0,0,1.725,0,1.182,1.182,0,0,0,0-1.669Zm-12.85-2.734a8.182,8.182,0,0,1-4.226-1.151,8.442,8.442,0,0,1-3.018-3.022,8.358,8.358,0,0,1,0-8.462A8.442,8.442,0,0,1,7.893,5.279a8.331,8.331,0,0,1,8.451,0A8.442,8.442,0,0,1,19.363,8.3a8.358,8.358,0,0,1,0,8.462,8.442,8.442,0,0,1-3.018,3.022A8.182,8.182,0,0,1,12.119,20.936Z" transform="translate(972.686 30.286)" fill="#ceb26a"/>
  </g>
</svg>
