<svg width="12" height="10" viewBox="0 0 12 10" fill="none" xmlns="http://www.w3.org/2000/svg">
<path d="M11.487 1.10419C11.0598 1.29158 10.6047 1.41578 10.1301 1.47609C10.6183 1.1846 10.9909 0.72655 11.1661 0.174447C10.7109 0.445832 10.2084 0.637524 9.67277 0.744498C9.24057 0.284293 8.62457 -0.000732422 7.95257 -0.000732422C6.64877 -0.000732422 5.59913 1.05752 5.59913 2.35486C5.59913 2.54152 5.61492 2.72101 5.65369 2.89188C3.69585 2.7964 1.96344 1.85804 0.799642 0.428601C0.596463 0.781114 0.477283 1.1846 0.477283 1.61896C0.477283 2.43455 0.897283 3.15752 1.52333 3.57609C1.14498 3.56891 0.773796 3.45906 0.459335 3.28604C0.459335 3.29322 0.459335 3.30255 0.459335 3.31188C0.459335 4.45629 1.27564 5.40686 2.3461 5.62583C2.15441 5.67824 1.94549 5.70337 1.72867 5.70337C1.5779 5.70337 1.42569 5.69475 1.28282 5.66316C1.58795 6.59578 2.4538 7.28142 3.48333 7.30368C2.6821 7.93045 1.66477 8.30809 0.563437 8.30809C0.370309 8.30809 0.185078 8.29947 -0.000152588 8.27578C1.04303 8.9485 2.27933 9.3326 3.61257 9.3326C7.9461 9.3326 10.3153 5.74286 10.3153 2.63127C10.3153 2.52716 10.3117 2.42665 10.3067 2.32686C10.7741 1.99516 11.1668 1.58091 11.487 1.10419Z" fill="#181818"/>
</svg>
