<svg width="12" height="12" viewBox="0 0 12 12" fill="none" xmlns="http://www.w3.org/2000/svg">
<path d="M3.27 2.5C3.3 2.945 3.375 3.38 3.495 3.795L2.895 4.395C2.69 3.795 2.56 3.16 2.515 2.5H3.27V2.5ZM8.2 8.51C8.625 8.63 9.06 8.705 9.5 8.735V9.48C8.84 9.435 8.205 9.305 7.6 9.105L8.2 8.51V8.51ZM3.75 1.5H2C1.725 1.5 1.5 1.725 1.5 2C1.5 6.695 5.305 10.5 10 10.5C10.275 10.5 10.5 10.275 10.5 10V8.255C10.5 7.98 10.275 7.755 10 7.755C9.38 7.755 8.775 7.655 8.215 7.47C8.165 7.45 8.11 7.445 8.06 7.445C7.93 7.445 7.805 7.495 7.705 7.59L6.605 8.69C5.19 7.965 4.03 6.81 3.31 5.395L4.41 4.295C4.55 4.155 4.59 3.96 4.535 3.785C4.35 3.225 4.25 2.625 4.25 2C4.25 1.725 4.025 1.5 3.75 1.5Z" fill="#F9F9F9"/>
</svg>
