<svg width="68" height="43" viewBox="0 0 68 43" fill="none" xmlns="http://www.w3.org/2000/svg">
<path d="M68 1.41981C67.9317 1.55503 67.8293 1.75786 67.6928 2.0283C67.5562 2.23113 67.249 2.56918 66.7711 3.04245C65.6104 3.65094 64.6205 4.15802 63.8012 4.56368C62.9819 4.96934 62.2651 5.3412 61.6506 5.67925C60.49 6.35535 58.9879 7.23428 57.1446 8.31604C55.3695 9.3978 53.6285 10.6148 51.9217 11.967C50.2149 13.2516 48.747 14.6714 47.5181 16.2264C46.2892 17.7814 45.6747 19.3365 45.6747 20.8915C45.6747 21.0943 45.7088 21.3648 45.7771 21.7028C45.8454 21.9733 46.0502 22.1085 46.3916 22.1085C47.6205 21.9057 48.8835 21.8042 50.1807 21.8042C51.6827 21.8042 53.1506 21.9057 54.5843 22.1085C54.9257 22.1761 55.3695 22.3451 55.9157 22.6156C56.5301 22.886 57.1104 23.2241 57.6566 23.6297C58.2711 23.9678 58.8173 24.3734 59.2952 24.8467C59.8414 25.2524 60.2851 25.6242 60.6265 25.9623C62.1285 27.7201 62.8795 29.8498 62.8795 32.3514C62.8795 35.5291 61.8896 38.0983 59.9096 40.059C57.998 42.0197 55.4036 43 52.1265 43C49.7369 43 47.5863 42.5267 45.6747 41.5802C43.8313 40.566 42.2269 39.2814 40.8614 37.7264C39.496 36.1038 38.4377 34.2445 37.6867 32.1486C37.004 30.0527 36.6627 27.8892 36.6627 25.658C36.6627 21.6014 37.5161 17.9843 39.2229 14.8066C40.9297 11.6289 43.3193 8.99214 46.3916 6.89623C47.4839 6.15252 48.6446 5.40881 49.8735 4.66509C51.1024 3.85377 52.502 3.11006 54.0723 2.43396C56.0522 1.69025 57.8614 1.11557 59.5 0.709906C61.1386 0.236635 62.743 0 64.3132 0C64.8594 0 65.3715 0.0676101 65.8494 0.20283C66.3273 0.27044 67.0442 0.676101 68 1.41981ZM31.3373 1.41981C31.2691 1.55503 31.1667 1.75786 31.0301 2.0283C30.8936 2.23113 30.5863 2.56918 30.1084 3.04245C28.9478 3.65094 27.9578 4.15802 27.1386 4.56368C26.3193 4.96934 25.6024 5.3412 24.988 5.67925C23.8273 6.35535 22.3253 7.23428 20.4819 8.31604C18.7068 9.3978 16.9659 10.6148 15.259 11.967C13.5522 13.2516 12.0843 14.6714 10.8554 16.2264C9.62651 17.7814 9.01205 19.3365 9.01205 20.8915C9.01205 21.0943 9.04618 21.3648 9.11446 21.7028C9.18273 21.9733 9.38755 22.1085 9.72892 22.1085C10.9578 21.9057 12.2209 21.8042 13.5181 21.8042C15.0201 21.8042 16.488 21.9057 17.9217 22.1085C18.2631 22.1761 18.7068 22.3451 19.253 22.6156C19.8675 22.886 20.4478 23.2241 20.994 23.6297C21.6084 23.9678 22.1546 24.3734 22.6325 24.8467C23.1787 25.2524 23.6225 25.6242 23.9639 25.9623C25.4659 27.7201 26.2169 29.8498 26.2169 32.3514C26.2169 35.5291 25.2269 38.0983 23.247 40.059C21.3353 42.0197 18.741 43 15.4639 43C13.0743 43 10.9237 42.5267 9.01205 41.5802C7.16867 40.566 5.56426 39.2814 4.19879 37.7264C2.83333 36.1038 1.7751 34.2445 1.0241 32.1486C0.341365 30.0527 0 27.8892 0 25.658C0 21.6014 0.853414 17.9843 2.56024 14.8066C4.26707 11.6289 6.65663 8.99214 9.72892 6.89623C10.8213 6.15252 11.9819 5.40881 13.2108 4.66509C14.4398 3.85377 15.8394 3.11006 17.4096 2.43396C19.3896 1.69025 21.1988 1.11557 22.8373 0.709906C24.4759 0.236635 26.0803 0 27.6506 0C28.1968 0 28.7088 0.0676101 29.1867 0.20283C29.6647 0.27044 30.3815 0.676101 31.3373 1.41981Z" fill="white"/>
</svg>
