<svg width="14" height="14" viewBox="0 0 14 14" fill="none" xmlns="http://www.w3.org/2000/svg">
<path d="M6.77237 0.333008C3.11271 0.333008 0.14917 3.31967 0.14917 6.99967C0.14917 10.6797 3.11271 13.6663 6.77237 13.6663C10.4387 13.6663 13.4088 10.6797 13.4088 6.99967C13.4088 3.31967 10.4387 0.333008 6.77237 0.333008ZM6.779 12.333C3.84862 12.333 1.47514 9.94634 1.47514 6.99967C1.47514 4.05301 3.84862 1.66634 6.779 1.66634C9.70939 1.66634 12.0829 4.05301 12.0829 6.99967C12.0829 9.94634 9.70939 12.333 6.779 12.333ZM7.1105 3.66634H6.11602V7.66634L9.59668 9.76634L10.0939 8.94634L7.1105 7.16634V3.66634Z" fill="#ACACAC"/>
</svg>
