<svg width="50" height="32" viewBox="0 0 50 32" fill="none" xmlns="http://www.w3.org/2000/svg">
<path d="M50 1.0566C49.9498 1.15723 49.8745 1.30818 49.7741 1.50943C49.6737 1.66038 49.4478 1.91195 49.0964 2.26415C48.243 2.71698 47.5151 3.09434 46.9126 3.39623C46.3102 3.69811 45.7831 3.97484 45.3313 4.22642C44.4779 4.72956 43.3735 5.38365 42.0181 6.18868C40.7128 6.99371 39.4327 7.89937 38.1777 8.90566C36.9227 9.86164 35.8434 10.9182 34.9398 12.0755C34.0361 13.2327 33.5843 14.3899 33.5843 15.5472C33.5843 15.6981 33.6094 15.8994 33.6596 16.1509C33.7098 16.3522 33.8604 16.4528 34.1114 16.4528C35.0151 16.3019 35.9438 16.2264 36.8976 16.2264C38.002 16.2264 39.0813 16.3019 40.1355 16.4528C40.3865 16.5031 40.7128 16.6289 41.1145 16.8302C41.5663 17.0314 41.993 17.283 42.3946 17.5849C42.8464 17.8365 43.248 18.1384 43.5994 18.4906C44.001 18.7925 44.3273 19.0692 44.5783 19.3208C45.6827 20.6289 46.2349 22.2138 46.2349 24.0755C46.2349 26.4403 45.507 28.3522 44.0512 29.8113C42.6456 31.2704 40.7379 32 38.3283 32C36.5713 32 34.99 31.6478 33.5843 30.9434C32.2289 30.1887 31.0492 29.2327 30.0452 28.0755C29.0412 26.8679 28.2631 25.4843 27.7108 23.9245C27.2088 22.3648 26.9578 20.7547 26.9578 19.0943C26.9578 16.0755 27.5853 13.3836 28.8404 11.0189C30.0954 8.65409 31.8524 6.69182 34.1114 5.13208C34.9147 4.57862 35.7681 4.02516 36.6717 3.4717C37.5753 2.86792 38.6044 2.31447 39.759 1.81132C41.2149 1.25786 42.5452 0.830189 43.75 0.528302C44.9548 0.176101 46.1345 0 47.2892 0C47.6908 0 48.0673 0.0503145 48.4187 0.150943C48.7701 0.201258 49.2972 0.503145 50 1.0566ZM23.0422 1.0566C22.992 1.15723 22.9167 1.30818 22.8163 1.50943C22.7159 1.66038 22.49 1.91195 22.1386 2.26415C21.2851 2.71698 20.5572 3.09434 19.9548 3.39623C19.3524 3.69811 18.8253 3.97484 18.3735 4.22642C17.5201 4.72956 16.4157 5.38365 15.0602 6.18868C13.755 6.99371 12.4749 7.89937 11.2199 8.90566C9.96486 9.86164 8.88554 10.9182 7.98193 12.0755C7.07831 13.2327 6.62651 14.3899 6.62651 15.5472C6.62651 15.6981 6.65161 15.8994 6.70181 16.1509C6.75201 16.3522 6.90261 16.4528 7.15361 16.4528C8.05723 16.3019 8.98594 16.2264 9.93976 16.2264C11.0442 16.2264 12.1235 16.3019 13.1777 16.4528C13.4287 16.5031 13.755 16.6289 14.1566 16.8302C14.6084 17.0314 15.0351 17.283 15.4367 17.5849C15.8886 17.8365 16.2902 18.1384 16.6416 18.4906C17.0432 18.7925 17.3695 19.0692 17.6205 19.3208C18.7249 20.6289 19.2771 22.2138 19.2771 24.0755C19.2771 26.4403 18.5492 28.3522 17.0934 29.8113C15.6878 31.2704 13.7801 32 11.3705 32C9.61345 32 8.03213 31.6478 6.62651 30.9434C5.27108 30.1887 4.09137 29.2327 3.08735 28.0755C2.08333 26.8679 1.30522 25.4843 0.753012 23.9245C0.251004 22.3648 0 20.7547 0 19.0943C0 16.0755 0.62751 13.3836 1.88253 11.0189C3.13755 8.65409 4.89458 6.69182 7.15361 5.13208C7.95683 4.57862 8.81024 4.02516 9.71385 3.4717C10.6175 2.86792 11.6466 2.31447 12.8012 1.81132C14.257 1.25786 15.5873 0.830189 16.7922 0.528302C17.997 0.176101 19.1767 0 20.3313 0C20.7329 0 21.1094 0.0503145 21.4608 0.150943C21.8122 0.201258 22.3394 0.503145 23.0422 1.0566Z" fill="#CEB26A"/>
</svg>
