<svg width="16" height="16" viewBox="0 0 16 16" fill="none" xmlns="http://www.w3.org/2000/svg">
<path d="M14.48 13.92L12 11.472C12.6507 10.6613 13.0613 9.73867 13.232 8.704C13.4027 7.712 13.3227 6.736 12.992 5.776C12.6613 4.79467 12.1067 3.95733 11.328 3.264C10.5493 2.56 9.648 2.09067 8.624 1.856C7.64267 1.64267 6.66667 1.66933 5.696 1.936C4.69333 2.224 3.81867 2.74133 3.072 3.488C2.336 4.224 1.824 5.09333 1.536 6.096C1.26933 7.06667 1.24267 8.04267 1.456 9.024C1.69067 10.048 2.15467 10.9493 2.848 11.728C3.552 12.5067 4.39467 13.0613 5.376 13.392C6.336 13.7227 7.312 13.8027 8.304 13.632C9.33867 13.4613 10.2613 13.0507 11.072 12.4L13.52 14.848C13.648 14.9867 13.808 15.056 14 15.056C14.192 15.056 14.352 14.9867 14.48 14.848C14.608 14.72 14.672 14.5653 14.672 14.384C14.672 14.2027 14.608 14.048 14.48 13.92ZM7.328 12.4C6.48533 12.4 5.70133 12.1867 4.976 11.76C4.272 11.344 3.712 10.784 3.296 10.08C2.86933 9.35467 2.656 8.57067 2.656 7.728C2.656 6.88533 2.86933 6.10133 3.296 5.376C3.712 4.672 4.272 4.112 4.976 3.696C5.70133 3.26933 6.48533 3.056 7.328 3.056C8.17067 3.056 8.95467 3.26933 9.68 3.696C10.384 4.112 10.944 4.672 11.36 5.376C11.7867 6.10133 12 6.88533 12 7.728C12 8.57067 11.7867 9.35467 11.36 10.08C10.944 10.784 10.384 11.344 9.68 11.76C8.95467 12.1867 8.17067 12.4 7.328 12.4Z" fill="white"/>
</svg>
