<svg width="24" height="24" viewBox="0 0 24 24" fill="none" xmlns="http://www.w3.org/2000/svg">
<g clip-path="url(#clip0)">
<path d="M22.5 12H1.5C0.673 12 0 11.327 0 10.5V6.5C0 5.673 0.673 5 1.5 5H22.5C23.327 5 24 5.673 24 6.5V10.5C24 11.327 23.327 12 22.5 12ZM1.5 6C1.225 6 1 6.224 1 6.5V10.5C1 10.776 1.225 11 1.5 11H22.5C22.775 11 23 10.776 23 10.5V6.5C23 6.224 22.775 6 22.5 6H1.5Z" fill="#415F43"/>
<path d="M19.5 24H4.5C3.121 24 2 22.878 2 21.5V11.5C2 11.224 2.224 11 2.5 11C2.776 11 3 11.224 3 11.5V21.5C3 22.327 3.673 23 4.5 23H19.5C20.327 23 21 22.327 21 21.5V11.5C21 11.224 21.224 11 21.5 11C21.776 11 22 11.224 22 11.5V21.5C22 22.878 20.879 24 19.5 24Z" fill="#415F43"/>
<path d="M12 24C11.724 24 11.5 23.776 11.5 23.5V11.5C11.5 11.224 11.724 11 12 11C12.276 11 12.5 11.224 12.5 11.5V23.5C12.5 23.776 12.276 24 12 24Z" fill="#415F43"/>
<path d="M12 5.99998C11.964 5.99998 11.928 5.99598 11.892 5.98798C11.262 5.84798 8.075 5.10898 7.233 4.26698C6.76 3.79598 6.5 3.16798 6.5 2.49998C6.5 1.83198 6.76 1.20398 7.232 0.731982C8.207 -0.243018 9.793 -0.243018 10.767 0.731982C11.609 1.57298 12.348 4.76098 12.488 5.39198C12.525 5.55898 12.474 5.73298 12.353 5.85298C12.259 5.94798 12.131 5.99998 12 5.99998ZM9 1.00098C8.616 1.00098 8.231 1.14698 7.939 1.43898C7.656 1.72298 7.5 2.09898 7.5 2.49998C7.5 2.90098 7.656 3.27698 7.939 3.56098C8.328 3.94998 9.954 4.47498 11.324 4.82498C10.973 3.45498 10.449 1.82898 10.06 1.43998C9.769 1.14698 9.384 1.00098 9 1.00098Z" fill="#415F43"/>
<path d="M11.9999 6.00002C11.8689 6.00002 11.7409 5.94802 11.6459 5.85402C11.5249 5.73302 11.4739 5.55902 11.5109 5.39302C11.6509 4.76202 12.3899 1.57502 13.2319 0.73302C14.2069 -0.24298 15.7929 -0.24098 16.7669 0.73302C17.2399 1.20402 17.4999 1.83202 17.4999 2.50002C17.4999 3.16802 17.2399 3.79602 16.7679 4.26802C15.9259 5.11002 12.7389 5.84902 12.1089 5.98902C12.0719 5.99602 12.0359 6.00002 11.9999 6.00002ZM14.9999 1.00102C14.6159 1.00102 14.2309 1.14702 13.9389 1.43902C13.5499 1.82802 13.0259 3.45402 12.6749 4.82402C14.0449 4.47402 15.6709 3.94902 16.0599 3.56002C16.3439 3.27702 16.4999 2.90102 16.4999 2.50002C16.4999 2.09902 16.3439 1.72302 16.0609 1.43902C15.7689 1.14702 15.3839 1.00102 14.9999 1.00102ZM13.5859 1.08602H13.5959H13.5859Z" fill="#415F43"/>
</g>
<defs>
<clipPath id="clip0">
<rect width="24" height="24" fill="white"/>
</clipPath>
</defs>
</svg>
