<svg width="50" height="32" viewBox="0 0 50 32" fill="none" xmlns="http://www.w3.org/2000/svg">
<path d="M3.57628e-07 30.9434C0.0502012 30.8428 0.125502 30.6918 0.225903 30.4906C0.326305 30.3396 0.552207 30.0881 0.903613 29.7358C1.75703 29.283 2.48494 28.9057 3.08735 28.6038C3.68976 28.3019 4.21687 28.0252 4.66867 27.7736C5.52209 27.2704 6.6265 26.6164 7.98193 25.8113C9.28715 25.0063 10.5673 24.1006 11.8223 23.0943C13.0773 22.1384 14.1566 21.0818 15.0602 19.9245C15.9639 18.7673 16.4157 17.6101 16.4157 16.4528C16.4157 16.3019 16.3906 16.1006 16.3404 15.8491C16.2902 15.6478 16.1396 15.5472 15.8886 15.5472C14.9849 15.6981 14.0562 15.7736 13.1024 15.7736C11.998 15.7736 10.9187 15.6981 9.86446 15.5472C9.61345 15.4969 9.28715 15.3711 8.88554 15.1698C8.43373 14.9686 8.00703 14.717 7.60542 14.4151C7.15362 14.1635 6.75201 13.8616 6.4006 13.5094C5.999 13.2075 5.67269 12.9308 5.42169 12.6792C4.31727 11.3711 3.76506 9.78616 3.76506 7.92453C3.76506 5.55975 4.49297 3.6478 5.94879 2.18868C7.35442 0.729557 9.26205 -1.66893e-06 11.6717 -1.66893e-06C13.4287 -1.66893e-06 15.01 0.3522 16.4157 1.0566C17.7711 1.81132 18.9508 2.76729 19.9548 3.92453C20.9588 5.13207 21.7369 6.51572 22.2892 8.07547C22.7912 9.63522 23.0422 11.2453 23.0422 12.9057C23.0422 15.9245 22.4147 18.6164 21.1596 20.9811C19.9046 23.3459 18.1476 25.3082 15.8886 26.8679C15.0853 27.4214 14.2319 27.9748 13.3283 28.5283C12.4247 29.1321 11.3956 29.6855 10.241 30.1887C8.78514 30.7421 7.45482 31.1698 6.25 31.4717C5.04518 31.8239 3.86546 32 2.71084 32C2.30924 32 1.93273 31.9497 1.58133 31.8491C1.22992 31.7987 0.702812 31.4969 3.57628e-07 30.9434ZM26.9578 30.9434C27.008 30.8428 27.0833 30.6918 27.1837 30.4906C27.2841 30.3396 27.51 30.0881 27.8614 29.7358C28.7149 29.283 29.4428 28.9057 30.0452 28.6038C30.6476 28.3019 31.1747 28.0252 31.6265 27.7736C32.4799 27.2704 33.5843 26.6164 34.9398 25.8113C36.245 25.0063 37.5251 24.1006 38.7801 23.0943C40.0351 22.1384 41.1145 21.0818 42.0181 19.9245C42.9217 18.7673 43.3735 17.6101 43.3735 16.4528C43.3735 16.3019 43.3484 16.1006 43.2982 15.8491C43.248 15.6478 43.0974 15.5472 42.8464 15.5472C41.9428 15.6981 41.0141 15.7736 40.0602 15.7736C38.9558 15.7736 37.8765 15.6981 36.8223 15.5472C36.5713 15.4969 36.245 15.3711 35.8434 15.1698C35.3916 14.9686 34.9649 14.717 34.5633 14.4151C34.1114 14.1635 33.7098 13.8616 33.3584 13.5094C32.9568 13.2075 32.6305 12.9308 32.3795 12.6792C31.2751 11.3711 30.7229 9.78616 30.7229 7.92453C30.7229 5.55975 31.4508 3.6478 32.9066 2.18868C34.3122 0.729557 36.2199 -1.66893e-06 38.6295 -1.66893e-06C40.3865 -1.66893e-06 41.9679 0.3522 43.3735 1.0566C44.7289 1.81132 45.9086 2.76729 46.9127 3.92453C47.9167 5.13207 48.6948 6.51572 49.247 8.07547C49.749 9.63522 50 11.2453 50 12.9057C50 15.9245 49.3725 18.6164 48.1175 20.9811C46.8624 23.3459 45.1054 25.3082 42.8464 26.8679C42.0432 27.4214 41.1898 27.9748 40.2861 28.5283C39.3825 29.1321 38.3534 29.6855 37.1988 30.1887C35.743 30.7421 34.4127 31.1698 33.2078 31.4717C32.003 31.8239 30.8233 32 29.6687 32C29.2671 32 28.8906 31.9497 28.5392 31.8491C28.1878 31.7987 27.6606 31.4969 26.9578 30.9434Z" fill="#CEB26A"/>
</svg>
