<svg width="32" height="32" viewBox="0 0 32 32" fill="none" xmlns="http://www.w3.org/2000/svg">
<path d="M5.3335 0V32H24.0002L32.0002 24V0H5.3335Z" fill="#EFEEEE"/>
<path d="M24 24V32L32 24H24Z" fill="#ABABAB"/>
<path d="M16 32H24V24L16 32Z" fill="#DEDEDD"/>
<path d="M0 8V17.3333H21.3333V8H0Z" fill="#CB5641"/>
<path d="M5.08289 9.82141C5.37623 9.82141 5.62156 9.87074 5.82289 9.96941C6.02422 10.0681 6.18422 10.1974 6.30689 10.3574C6.42956 10.5174 6.51756 10.7001 6.57089 10.9054C6.62289 11.1094 6.65089 11.3201 6.65089 11.5334C6.65089 11.8267 6.60689 12.0827 6.51889 12.3014C6.43089 12.5201 6.30822 12.6987 6.15089 12.8361C5.99356 12.9747 5.80289 13.0801 5.57889 13.1481C5.35489 13.2161 5.10689 13.2534 4.83489 13.2534H4.21889V15.5334H3.06689V9.82141H5.08289ZM4.73089 12.4081C4.96023 12.4081 5.14689 12.3374 5.28689 12.1987C5.42823 12.0601 5.49889 11.8441 5.49889 11.5507C5.49889 11.2627 5.43756 11.0441 5.31489 10.8947C5.19223 10.7467 4.98689 10.6707 4.69889 10.6707H4.21889V12.4081H4.73089Z" fill="white"/>
<path d="M9.9632 9.82007C10.3645 9.82007 10.6859 9.88674 10.9325 10.0174C11.1779 10.1481 11.3685 10.3334 11.5045 10.5774C11.6419 10.8201 11.7325 11.1107 11.7805 11.4534C11.8285 11.7947 11.8525 12.1761 11.8525 12.5961C11.8525 13.0974 11.8232 13.5334 11.7619 13.9041C11.7005 14.2734 11.5952 14.5801 11.4459 14.8201C11.2965 15.0614 11.0965 15.2387 10.8459 15.3561C10.5952 15.4734 10.2779 15.5321 9.89387 15.5321H8.0752V9.82007H9.9632ZM9.7392 14.6867C9.94186 14.6867 10.1045 14.6521 10.2272 14.5827C10.3499 14.5134 10.4472 14.3987 10.5192 14.2387C10.5925 14.0787 10.6405 13.8681 10.6632 13.6054C10.6872 13.3454 10.6992 13.0201 10.6992 12.6307C10.6992 12.3054 10.6872 12.0201 10.6672 11.7734C10.6459 11.5281 10.6019 11.3241 10.5352 11.1614C10.4672 10.9987 10.3699 10.8761 10.2379 10.7947C10.1072 10.7121 9.93253 10.6694 9.71386 10.6694H9.2272V14.6867H9.7392Z" fill="white"/>
<path d="M16.6031 9.82141V10.7654H14.5631V12.1094H16.4831V13.0534H14.5631V15.5334H13.4111V9.82141H16.6031Z" fill="white"/>
</svg>
